<?xml version="1.0" encoding="UTF-8" standalone="no"?>
<!DOCTYPE svg PUBLIC "-//W3C//DTD SVG 1.1//EN" "http://www.w3.org/Graphics/SVG/1.1/DTD/svg11.dtd">
<svg width="100%" height="100%" viewBox="0 0 1920 1080" version="1.1" xmlns="http://www.w3.org/2000/svg" xmlns:xlink="http://www.w3.org/1999/xlink" xml:space="preserve" xmlns:serif="http://www.serif.com/" style="fill-rule:evenodd;clip-rule:evenodd;stroke-linecap:square;stroke-miterlimit:1;">
    <g>
        <use xlink:href="#_Image1" x="0" y="0" width="1920px" height="1080px"/>
        <path d="M324.25,312.01L540.417,436.814L540.417,811.226L756.584,686.422L432.334,499.216L216.167,624.02L216.167,249.608L432.334,124.804" style="fill:none;stroke:url(#_Linear2);stroke-width:2px;"/>
        <path d="M216.167,748.824L216.167,998.432L421.033,880.152L432.334,624.02L216.167,748.824Z" style="fill:none;stroke:url(#_Linear3);stroke-width:1px;"/>
        <path d="M0,624.02L216.167,499.216L432.334,624.02L972.751,312.01L648.501,124.804L864.667,0L1297,249.608L1405.09,187.206L1405.09,62.402L1621.25,187.206L1621.25,436.814L1837.42,312.01L1837.42,811.226L1621.25,936.03L1621.25,561.618L1837.42,436.814" style="fill:none;stroke:url(#_Linear4);stroke-width:2px;"/>
        <path d="M1188.92,436.814L1188.92,811.226L1405.09,936.03L1405.09,1060.83L1297,998.432L1188.92,1060.83L972.751,936.03L972.751,686.422L756.584,561.618L756.584,936.03L972.751,1060.83C972.751,1060.83 867.615,1120.98 864.667,1123.24C861.72,1125.49 762.981,1189.33 762.981,1189.33L540.417,1060.83L540.417,811.226" style="fill:none;stroke:url(#_Linear5);stroke-width:1px;"/>
        <clipPath id="_clip6">
            <path d="M1297.5,373.546L1404.95,311.51L1405.22,311.51L1513.67,374.123L1513.67,374.701L1405.59,437.103L1405.59,561.907L1405.09,562.195L1188.24,436.997L1188.74,436.131L1404.59,560.752L1404.59,436.68L1404.72,436.448L1512.17,374.412L1405.09,312.587L1297,374.989L1296.5,374.701L1296.5,-0.5L1297.5,-0.5L1297.5,373.546Z"/>
        </clipPath>
        <g clip-path="url(#_clip6)">
            <use xlink:href="#_Image7" x="1189.29" y="0" width="327.433px" height="563.195px" transform="matrix(0.998272,0,0,0.998573,0,0)"/>
        </g>
    </g>
    <defs>
        <linearGradient id="_Linear2" x1="0" y1="0" x2="1" y2="0" gradientUnits="userSpaceOnUse" gradientTransform="matrix(297.232,-308.221,308.221,297.232,481.37,595.709)"><stop offset="0" style="stop-color:rgb(65,196,242);stop-opacity:0.3"/><stop offset="1" style="stop-color:rgb(242,92,70);stop-opacity:0.3"/></linearGradient>
        <linearGradient id="_Linear3" x1="0" y1="0" x2="1" y2="0" gradientUnits="userSpaceOnUse" gradientTransform="matrix(297.232,-308.221,308.221,297.232,481.37,595.709)"><stop offset="0" style="stop-color:rgb(65,196,242);stop-opacity:1"/><stop offset="1" style="stop-color:rgb(242,92,70);stop-opacity:1"/></linearGradient>
        <linearGradient id="_Linear4" x1="0" y1="0" x2="1" y2="0" gradientUnits="userSpaceOnUse" gradientTransform="matrix(297.232,-308.221,308.221,297.232,481.37,595.709)"><stop offset="0" style="stop-color:rgb(65,196,242);stop-opacity:1"/><stop offset="1" style="stop-color:rgb(242,92,70);stop-opacity:1"/></linearGradient>
        <linearGradient id="_Linear5" x1="0" y1="0" x2="1" y2="0" gradientUnits="userSpaceOnUse" gradientTransform="matrix(0,-123.289,0,118.893,1188.92,675.098)"><stop offset="0" style="stop-color:rgb(65,196,242);stop-opacity:1"/><stop offset="1" style="stop-color:rgb(242,92,70);stop-opacity:1"/></linearGradient>
    </defs>
</svg>
