<?xml version="1.0" encoding="UTF-8"?><svg width="100%" height="100%" viewBox="0 0 38 16" version="1.1" xmlns="http://www.w3.org/2000/svg"><path fill="white" d="M25.133,12.837l0,-4.723c-0.744,2.721 -3.236,4.723 -6.192,4.723c-1.144,0 -2.219,-0.3 -3.15,-0.826l0,3.837l-3.268,0l0,-7.441c-0.838,2.57 -3.256,4.43 -6.104,4.43c-3.543,0 -6.419,-2.876 -6.419,-6.418c0,-3.543 2.876,-6.419 6.419,-6.419c3.055,0 5.615,2.14 6.261,5.002c0.646,-2.862 3.206,-5.002 6.261,-5.002c2.102,0 3.969,1.012 5.14,2.575c0.064,-1.432 1.247,-2.575 2.695,-2.575c1.489,0 2.698,1.209 2.698,2.698c0,0.879 -0.421,1.66 -1.072,2.153l0,4.692c1.724,-0.001 3.123,-1.4 3.124,-3.124l0.001,0c0,-3.542 2.875,-6.418 6.418,-6.419l0,3.294c-1.724,0.001 -3.122,1.399 -3.124,3.125l-0.001,0c0,3.541 -2.875,6.417 -6.418,6.418l-3.269,0Zm-6.192,-9.543c-1.724,0 -3.124,1.4 -3.124,3.125c0,1.724 1.4,3.124 3.124,3.124c1.724,0 3.124,-1.4 3.124,-3.124c0,-1.725 -1.4,-3.125 -3.124,-3.125Zm-12.522,0c-1.725,0 -3.125,1.4 -3.125,3.125c0,1.724 1.4,3.124 3.125,3.124c1.724,0 3.124,-1.4 3.124,-3.124c0,-1.725 -1.4,-3.125 -3.124,-3.125Zm20.357,-1.909c-0.724,0 -1.313,0.588 -1.313,1.313c0,0.725 0.589,1.313 1.313,1.313c0.725,0 1.314,-0.588 1.314,-1.313c0,-0.725 -0.589,-1.313 -1.314,-1.313Z"/></svg>